# xmcd
#
# Track frame offsets:
#	150
#	66899
#	118504
#	168488
#	208842
#	257368
#	309127
#
# Disc length: 4307 seconds
#
# Revision: 1
# Processed by: cddbd v1.5.2PL0 Copyright (c) Steve Scherf et al.
# Submitted via: audiograbber 1.83.01
#
DISCID=5810d107
DTITLE=Kempowski, Walter - Alles umsonst - CD 8
DYEAR=1900
DGENRE=
TTITLE0=CD 8 - Track  1
TTITLE1=CD 8 - Track  2
TTITLE2=CD 8 - Track  3
TTITLE3=CD 8 - Track  4
TTITLE4=CD 8 - Track  5
TTITLE5=CD 8 - Track  6
TTITLE6=CD 8 - Track  7
EXTD=
EXTT0=
EXTT1=
EXTT2=
EXTT3=
EXTT4=
EXTT5=
EXTT6=
PLAYORDER=
